<?xml version="1.0" standalone="no"?><!DOCTYPE svg PUBLIC "-//W3C//DTD SVG 1.1//EN" "http://www.w3.org/Graphics/SVG/1.1/DTD/svg11.dtd"><svg height="262" node-id="1" sillyvg="true" template-height="262" template-width="317" version="1.1" viewBox="0 0 317 262" width="317" xmlns="http://www.w3.org/2000/svg" xmlns:xlink="http://www.w3.org/1999/xlink"><defs node-id="70"><linearGradient gradientUnits="objectBoundingBox" id="a" node-id="5" spreadMethod="pad" x1="242.84" x2="276.24" y1="113.68" y2="141.39"><stop offset="0" stop-color="#ffffff"></stop><stop offset="0.66" stop-color="#7f95ff"></stop></linearGradient><linearGradient gradientUnits="objectBoundingBox" id="b" node-id="8" spreadMethod="pad" x1="243.17" x2="276.58" y1="111.11" y2="138.83"><stop offset="0" stop-color="#ffffff"></stop><stop offset="0.66" stop-color="#7f95ff"></stop></linearGradient><linearGradient gradientUnits="objectBoundingBox" id="c" node-id="9" spreadMethod="pad" x1="184.82" x2="195.06" y1="66.1" y2="66.1"><stop offset="0" stop-color="#ffffff"></stop><stop offset="0.66" stop-color="#ffffff"></stop></linearGradient></defs><g node-id="326"><path d="M 66.70 7.90 L 71.50 9.70 L 77.80 11.50 L 89.20 13.90 L 104.30 16.10 L 122.90 18.30 L 143.30 19.90 L 163.60 20.30 L 176.30 19.50 L 187.60 17.70 L 192.40 16.30 L 198.80 13.90 L 201.50 13.30 L 208.50 13.10 L 213.40 13.60 L 219.00 14.70 L 225.30 16.40 L 231.40 18.40 L 237.90 21.10 L 244.80 24.40 L 251.50 28.00 L 258.30 32.20 L 265.20 37.00 L 271.80 42.10 L 278.20 47.80 L 284.50 54.00 L 290.30 60.60 L 295.80 67.60 L 300.80 75.20 L 304.10 81.10 L 307.10 87.30 L 309.80 93.70 L 312.10 100.50 L 313.90 107.30 L 315.30 114.40 L 316.20 121.90 L 316.60 129.70 L 316.40 137.30 L 315.60 145.40 L 314.30 153.80 L 312.20 162.60 L 309.60 171.00 L 306.30 179.90 L 302.10 189.20 L 297.10 199.00 L 293.80 204.50 L 290.20 209.70 L 286.20 214.70 L 282.00 219.30 L 277.40 223.70 L 271.40 228.80 L 264.90 233.60 L 258.10 238.00 L 250.80 242.00 L 243.40 245.60 L 235.70 248.80 L 227.70 251.70 L 219.50 254.20 L 208.30 257.00 L 197.00 259.20 L 185.40 260.80 L 173.70 261.90 L 162.20 262.40 L 150.70 262.30 L 139.30 261.70 L 128.20 260.70 L 117.60 259.10 L 107.00 257.00 L 97.20 254.60 L 88.10 251.70 L 75.10 246.40 L 64.30 240.50 L 57.30 235.70 L 50.40 230.30 L 43.60 224.30 L 34.00 214.30 L 29.50 208.80 L 21.10 196.80 L 17.30 190.30 L 13.80 183.50 L 10.60 176.30 L 7.80 168.90 L 5.40 161.20 L 3.40 153.10 L 1.80 144.60 L 0.70 136.10 L 0.20 127.20 L 0.10 117.80 L 0.60 107.90 L 1.50 98.20 L 3.20 88.10 L 5.50 77.40 L 8.50 66.20 L 12.20 54.80 L 15.80 45.30 L 19.20 37.50 L 23.20 29.90 L 26.90 23.80 L 30.40 19.10 L 34.30 14.70 L 37.90 11.40 L 41.30 9.00 L 45.00 7.10 L 48.30 5.80 L 51.40 5.10 L 54.60 4.90 L 60.10 5.50 L 63.80 6.60 L 66.70 7.90 Z" fill="#dadada" fill-opacity="0.23" fill-rule="nonzero" group-id="1" node-id="93" stroke="none" target-height="257.5" target-width="316.5" target-x="0.1" target-y="4.9"></path></g><g node-id="327"><path d="M 78.00 166.70 L 117.30 106.60 L 119.30 105.70 L 121.50 106.00 L 131.60 114.90 L 132.70 115.50 L 134.00 115.60 L 135.20 115.20 L 136.10 114.30 L 158.40 82.80 L 159.80 82.50 L 160.50 82.80 L 169.90 88.70 L 171.00 89.10 L 173.10 88.80 L 189.00 69.40" fill="none" group-id="2" node-id="98" stroke="url(#a)" stroke-linecap="butt" stroke-opacity="0.15" stroke-width="1.4" target-height="97.299995" target-width="111" target-x="78" target-y="69.4"></path></g><g node-id="328"><path d="M 78.00 164.10 L 117.30 104.00 L 119.30 103.10 L 121.50 103.40 L 131.60 112.30 L 132.70 112.90 L 134.00 113.00 L 135.20 112.60 L 136.10 111.80 L 158.30 80.20 L 159.80 79.90 L 160.50 80.20 L 171.00 86.60 L 172.10 86.60 L 173.10 86.20 L 189.00 66.80" fill="none" group-id="3" node-id="103" stroke="url(#b)" stroke-linecap="butt" stroke-width="1.4" target-height="97.3" target-width="111" target-x="78" target-y="66.8"></path></g><path d="M 195.00 66.10 L 194.80 67.40 L 193.50 69.70 L 191.20 71.00 L 189.90 71.20 L 188.60 71.00 L 186.30 69.70 L 185.50 68.60 L 184.80 66.10 L 185.00 64.80 L 186.30 62.50 L 187.40 61.70 L 189.90 61.00 L 191.20 61.20 L 193.50 62.50 L 194.80 64.80 L 195.00 66.10 Z" fill="url(#c)" fill-rule="nonzero" node-id="106" stroke="none" target-height="10.199997" target-width="10.199997" target-x="184.8" target-y="61"></path><path d="M 191.40 66.20 L 191.00 67.30 L 189.90 67.70 L 188.80 67.30 L 188.40 66.20 L 188.80 65.10 L 189.90 64.70 L 191.00 65.10 L 191.40 66.20 Z" fill="#7f95ff" fill-rule="nonzero" node-id="108" stroke="none" target-height="3" target-width="3" target-x="188.4" target-y="64.7"></path><g node-id="329"><path d="M 207.80 176.50 L 217.00 176.10 L 221.20 175.50 L 225.80 174.60 L 230.50 173.20 L 235.00 171.30 L 237.80 169.70 L 242.70 165.70 L 235.00 208.20 L 231.80 222.80 L 222.30 259.30 L 207.60 259.30 L 206.60 215.10 L 207.00 195.10 L 207.80 176.50 Z" fill="#161413" fill-rule="nonzero" group-id="4" node-id="114" stroke="#28282d" stroke-linecap="butt" stroke-width="1" target-height="93.59999" target-width="36.09999" target-x="206.6" target-y="165.7"></path></g><g node-id="330"><path d="M 227.20 177.30 L 237.00 177.50 L 241.20 177.30 L 250.10 175.80 L 254.00 174.50 L 256.30 173.30 L 258.10 171.80 L 259.40 170.10 L 262.40 186.10 L 263.50 197.90 L 263.50 226.50 L 264.80 260.00 L 251.20 260.00 Z" fill="#161413" fill-rule="nonzero" group-id="5" node-id="119" stroke="#28282d" stroke-linecap="butt" stroke-width="1" target-height="89.899994" target-width="37.59999" target-x="227.2" target-y="170.1"></path></g><g node-id="331"><path d="M 211.90 72.50 L 212.00 83.10 L 213.20 89.70 L 214.30 92.50 L 215.30 94.10 L 216.50 95.30 L 217.90 96.20 L 219.50 96.60 L 221.50 96.60 L 223.90 95.90 L 222.40 111.60 L 224.20 112.50 L 226.80 112.80 L 229.30 111.80 L 231.40 109.40 L 233.00 106.30 L 233.90 103.80 L 234.40 101.40 L 234.60 98.40 L 240.70 86.40 L 232.60 72.20 Z" fill="#ffffff" fill-rule="nonzero" group-id="6" node-id="124" stroke="#25262e" stroke-linecap="butt" stroke-width="1" target-height="40.600006" target-width="28.800003" target-x="211.9" target-y="72.2"></path></g><g node-id="332"><path d="M 217.60 91.10 L 220.00 91.10 L 220.80 90.60 L 221.50 89.60" fill="none" group-id="7" node-id="129" stroke="#25262e" stroke-linecap="butt" stroke-width="1" target-height="1.5" target-width="3.899994" target-x="217.6" target-y="89.6"></path></g><g node-id="333"><path d="M 221.60 82.30 L 221.40 82.90 L 220.80 83.20 L 220.30 82.90 L 220.00 82.30 L 220.30 81.70 L 220.80 81.40 L 221.40 81.60 L 221.60 82.30 Z" fill="#0a0b1f" fill-rule="nonzero" group-id="8" node-id="134" stroke="none" target-height="1.7999954" target-width="1.6000061" target-x="220" target-y="81.4"></path></g><g node-id="334"><path d="M 213.70 83.20 L 213.50 83.80 L 213.00 84.10 L 212.40 83.90 L 212.10 83.20 L 212.40 82.60 L 212.90 82.30 L 213.50 82.60 L 213.70 83.20 Z" fill="#0a0b1f" fill-rule="nonzero" group-id="9" node-id="139" stroke="none" target-height="1.7999954" target-width="1.5999908" target-x="212.1" target-y="82.3"></path></g><g node-id="335"><path d="M 165.10 143.00 L 165.20 140.20 L 164.70 137.80 L 162.50 132.20 L 158.90 130.90 L 156.70 128.40 L 155.60 127.60 L 154.60 127.40 L 153.80 127.70 L 153.30 128.50 L 153.20 129.80 L 153.60 131.10 L 154.30 132.10 L 157.50 134.40 L 157.20 135.30 L 152.70 135.90 L 139.50 136.60 L 137.80 137.10 L 137.00 137.70 L 136.60 138.40 L 136.60 139.40 L 137.80 140.70 L 141.10 141.50 L 149.20 141.10 L 155.60 140.10 L 143.40 141.50 L 141.80 142.00 L 140.00 143.30 L 139.80 145.00 L 140.30 145.50 L 141.60 145.70 L 145.50 145.50 L 154.40 144.10 L 147.10 145.30 L 144.40 146.00 L 143.50 146.50 L 143.30 147.00 L 143.60 147.90 L 145.50 148.50 L 150.30 148.10 L 154.60 147.10 L 150.70 147.60 L 148.30 148.30 L 147.80 148.70 L 148.00 149.20 L 148.80 149.60 L 153.40 149.50 L 156.30 149.10 L 161.10 147.50 L 163.70 145.80 L 164.60 144.50 L 165.10 143.00 Z" fill="#ffffff" fill-rule="nonzero" group-id="10" node-id="144" stroke="#28282d" stroke-linecap="butt" stroke-width="1.4" target-height="22.200005" target-width="28.59999" target-x="136.6" target-y="127.4"></path></g><g node-id="336"><path d="M 251.30 176.40 L 260.10 174.00 L 259.90 156.30 L 258.70 136.30 L 256.90 122.60 L 255.60 116.60 L 253.40 109.40 L 250.60 104.10 L 248.90 102.40 L 244.60 100.00 L 238.80 98.90 L 234.10 98.80 L 233.70 102.40 L 232.20 106.60 L 230.80 108.40 L 229.70 109.20 L 228.20 109.70 L 226.40 109.80 L 224.70 108.60 L 223.50 105.80 L 223.20 100.80 L 220.90 100.90 L 218.30 101.60 L 214.10 104.10 L 211.50 106.30 L 203.80 114.00 L 198.50 120.00 L 194.80 122.80 L 192.10 124.10 L 187.90 125.40 L 183.10 126.50 L 173.70 127.80 L 163.40 128.30 L 163.40 149.30 L 175.20 149.20 L 180.40 148.80 L 192.20 146.90 L 197.80 145.30 L 201.40 143.90 L 204.50 142.20 L 207.30 140.20 L 209.10 138.50 L 210.50 136.60 L 211.60 134.50 L 212.30 132.10" fill="#ff7447" fill-rule="nonzero" group-id="11" node-id="149" stroke="#28282d" stroke-linecap="butt" stroke-width="1" target-height="77.59999" target-width="96.70001" target-x="163.4" target-y="98.8"></path></g><g node-id="338"><path d="M 251.30 176.40 L 235.10 177.60 L 228.00 177.30 L 219.70 177.90 L 213.10 177.40 L 208.50 176.40 L 209.40 174.90 L 210.70 170.20 L 211.60 162.30 L 211.70 156.50 L 212.80 148.80 L 212.90 140.90 L 212.30 132.10" fill="#ff7447" fill-rule="nonzero" group-id="13" node-id="156" stroke="#28282d" stroke-linecap="butt" stroke-width="1" target-height="45.799988" target-width="42.800003" target-x="208.5" target-y="132.1"></path></g><g node-id="339"><path d="M 248.80 175.40 L 244.80 174.50 L 239.60 174.90 L 237.40 177.60 L 234.70 178.90 L 233.50 180.40 L 233.60 181.10 L 234.00 181.70 L 235.10 182.10 L 236.20 182.10 L 237.20 181.70 L 239.90 179.60 L 240.60 180.10 L 240.00 184.00 L 237.20 194.90 L 237.20 196.50 L 237.90 197.80 L 238.70 198.00 L 240.10 197.40 L 241.50 194.80 L 243.30 188.00 L 244.00 182.50 L 242.20 192.80 L 242.40 195.50 L 243.30 196.50 L 244.10 196.70 L 245.00 196.40 L 245.70 195.30 L 246.60 192.10 L 247.00 184.50 L 246.00 193.10 L 246.60 194.30 L 247.60 194.50 L 248.50 193.80 L 249.20 191.10 L 249.50 185.00 L 248.90 190.40 L 249.10 191.00 L 250.10 190.30 L 251.20 186.50 L 251.60 182.00 L 251.50 179.80 L 250.70 177.20 L 249.90 176.20 L 248.80 175.40 Z" fill="#ffffff" fill-rule="nonzero" group-id="14" node-id="161" stroke="#28282d" stroke-linecap="butt" stroke-width="1.4" target-height="23.5" target-width="18.100006" target-x="233.5" target-y="174.5"></path></g><g node-id="340"><path d="M 252.10 105.90 L 254.30 112.30 L 257.00 122.80 L 258.20 129.50 L 258.90 136.60 L 259.20 144.30 L 258.30 154.90 L 257.30 160.40 L 255.90 165.80 L 253.90 171.10 L 251.30 176.40 L 236.10 176.40 L 240.60 123.10" fill="#ff7447" fill-rule="nonzero" group-id="15" node-id="166" stroke="#28282d" stroke-linecap="butt" stroke-width="1" target-height="70.49999" target-width="23.100006" target-x="236.1" target-y="105.9"></path></g><g node-id="341"><path d="M 258.70 137.30 L 259.80 138.20 L 261.10 138.80 L 262.60 139.00 L 265.80 138.30 L 269.00 136.40 L 271.60 133.10 L 272.00 131.90 L 271.50 127.60 L 271.70 125.50 L 273.90 123.20 L 276.20 121.80 L 276.30 121.40 L 272.90 114.70 L 271.50 110.40 L 271.40 108.30 L 272.00 104.40 L 271.80 102.60 L 271.20 100.70 L 269.70 98.10 L 267.60 95.70 L 265.20 93.60 L 252.90 87.30 L 248.10 84.00 L 246.30 82.20 L 242.00 73.90 L 238.00 68.70 L 235.80 66.40 L 233.30 64.60 L 231.00 63.50 L 229.40 63.10 L 227.80 63.20 L 226.30 63.80 L 223.60 63.00 L 221.60 62.80 L 219.50 63.00 L 217.20 63.80 L 214.20 65.90 L 212.70 67.80 L 210.20 72.60 L 209.10 76.30 L 214.40 76.30 L 217.70 72.30 L 217.70 76.20 L 224.30 77.10 L 226.20 76.50 L 228.30 76.60 L 229.40 77.80 L 229.30 80.30 L 231.50 79.70 L 232.80 80.30 L 233.10 81.10 L 233.00 82.70 L 232.40 84.80 L 231.20 86.80 L 230.30 87.20 L 233.30 92.70 L 234.50 98.20 L 234.20 101.80 L 234.30 104.40 L 234.90 107.00 L 236.00 109.70 L 237.20 111.40 L 238.50 112.40 L 242.70 114.30 L 244.90 116.10 L 249.10 124.70 L 252.10 128.70 L 254.80 130.50 L 255.80 130.70 L 258.00 130.40 L 258.40 130.70 L 258.00 135.00 L 258.10 136.20 L 258.70 137.30 Z" fill="#0a0b1f" fill-rule="nonzero" group-id="16" node-id="171" stroke="none" target-height="76.2" target-width="67.19998" target-x="209.1" target-y="62.8"></path></g><g node-id="342"><path d="M 94.60 166.70 L 96.50 166.90 L 98.30 167.40 L 100.70 168.80 L 101.60 171.20 L 102.60 172.40 L 103.20 173.90 L 102.90 174.80 L 102.20 174.90 L 100.90 174.10 L 99.60 172.00 L 99.10 172.20 L 98.10 183.60 L 97.70 184.60 L 97.20 185.00 L 96.50 185.00 L 96.00 184.60 L 95.40 182.70 L 95.40 178.60 L 96.30 172.90 L 95.30 180.60 L 94.60 182.30 L 94.10 182.80 L 93.30 182.70 L 92.70 182.10 L 92.50 180.80 L 92.80 177.50 L 93.90 173.50 L 92.90 179.20 L 92.50 180.20 L 92.10 180.40 L 91.20 180.10 L 91.00 179.70 L 91.30 176.60 L 92.20 173.20 L 91.40 177.10 L 91.20 177.40 L 90.90 177.30 L 90.60 175.30 L 91.20 171.30 L 92.60 168.00 L 93.50 167.10 L 94.60 166.70 Z" fill="#ffffff" fill-rule="nonzero" group-id="17" node-id="176" stroke="#28282d" stroke-linecap="butt" stroke-width="1.4" target-height="18.300003" target-width="12.599998" target-x="90.6" target-y="166.7"></path></g><g node-id="343"><path d="M 95.20 169.20 L 89.40 169.30 L 80.60 168.50 L 75.20 167.60 L 69.90 166.20 L 64.40 164.10 L 69.20 195.90 L 78.10 260.40 L 95.30 260.40 L 96.40 210.80 L 96.00 189.50 L 95.20 169.20 Z" fill="#161413" fill-rule="nonzero" group-id="18" node-id="181" stroke="#28282d" stroke-linecap="butt" stroke-width="1" target-height="96.29999" target-width="32" target-x="64.4" target-y="164.1"></path></g><g node-id="344"><path d="M 83.20 167.30 L 63.00 168.00 L 53.80 167.90 L 47.60 167.30 L 44.90 177.60 L 43.20 187.90 L 42.80 193.50 L 43.00 209.70 L 42.80 222.70 L 41.30 260.60 L 63.70 260.60 Z" fill="#161413" fill-rule="nonzero" group-id="19" node-id="186" stroke="#28282d" stroke-linecap="butt" stroke-width="1" target-height="93.3" target-width="41.899998" target-x="41.3" target-y="167.3"></path></g><g node-id="345"><path d="M 122.50 144.30 L 123.20 141.90 L 124.30 139.60 L 125.80 137.50 L 127.60 135.70 L 129.70 134.70 L 134.50 134.70 L 137.90 133.10 L 139.40 132.80 L 140.70 133.00 L 141.40 133.60 L 141.50 134.50 L 141.10 135.90 L 140.10 137.00 L 138.90 137.70 L 135.00 138.40 L 134.50 138.70 L 134.40 139.80 L 138.90 142.30 L 152.80 148.30 L 154.40 149.50 L 155.10 150.40 L 155.20 151.20 L 154.70 152.20 L 152.90 153.10 L 148.90 152.50 L 146.00 151.50 L 140.40 148.80 L 134.00 145.20 L 146.50 151.70 L 148.00 152.80 L 149.40 154.90 L 148.80 156.60 L 148.10 156.90 L 146.50 156.60 L 142.50 154.80 L 133.60 149.70 L 142.40 154.80 L 144.20 156.60 L 144.20 157.20 L 143.50 158.00 L 141.20 157.90 L 136.20 155.40 L 132.00 152.60 L 136.00 154.70 L 138.20 156.40 L 138.60 157.20 L 137.20 157.40 L 132.30 155.50 L 127.10 152.40 L 124.90 150.40 L 122.90 147.60 L 122.40 146.00 L 122.50 144.30 Z" fill="#ffffff" fill-rule="nonzero" group-id="20" node-id="191" stroke="#28282d" stroke-linecap="butt" stroke-width="1.4" target-height="25.199997" target-width="32.799995" target-x="122.4" target-y="132.8"></path></g><g node-id="346"><path d="M 83.60 96.90 L 86.40 96.80 L 89.00 97.10 L 91.60 97.90 L 94.10 99.00 L 96.30 100.60 L 98.30 102.50 L 99.60 104.40 L 100.80 106.80 L 101.80 109.90 L 102.90 114.90 L 103.60 120.80 L 104.10 133.50 L 103.80 146.30 L 101.80 168.50 L 95.20 168.10 L 95.90 156.80 L 96.90 126.30 L 95.20 169.20 L 47.90 168.80 L 47.90 121.10 L 45.70 111.60 L 45.50 106.50 L 45.90 104.90 L 47.90 102.80 L 52.30 99.90 L 55.70 98.40 L 59.60 97.20 L 64.80 96.20 L 72.80 100.00 Z" fill="#ff7447" fill-rule="nonzero" group-id="21" node-id="196" stroke="#28282d" stroke-linecap="butt" stroke-width="1" target-height="73" target-width="58.6" target-x="45.5" target-y="96.2"></path></g><g node-id="347"><path d="M 47.10 103.50 L 45.30 107.90 L 44.00 114.90 L 43.90 119.20 L 45.10 125.20 L 46.30 128.30 L 48.00 131.30 L 50.30 134.40 L 53.50 137.50 L 57.00 140.20 L 61.50 142.80 L 67.20 145.40 L 73.10 147.50 L 80.40 149.40 L 89.30 151.10 L 98.20 152.20 L 108.90 152.90 L 121.60 153.20 L 129.50 133.00 L 116.30 132.20 L 103.40 131.00 L 89.40 128.80 L 82.60 127.30 L 72.90 124.10 L 67.50 121.00 L 66.00 119.60 L 65.00 118.10 L 64.50 116.60 L 64.40 115.00" fill="#ff7447" fill-rule="nonzero" group-id="22" node-id="201" stroke="#28282d" stroke-linecap="butt" stroke-width="1" target-height="49.699997" target-width="85.6" target-x="43.9" target-y="103.5"></path></g><g node-id="348"><path d="M 76.40 62.80 L 73.60 63.10 L 72.00 63.80 L 70.10 65.50 L 68.90 68.40 L 68.90 73.50 L 66.10 71.90 L 64.00 71.60 L 63.30 72.00 L 62.50 73.60 L 63.10 75.80 L 66.10 80.00 L 66.10 95.00 L 73.30 102.80 L 76.50 102.80 L 81.50 95.60 L 81.50 89.50 L 84.20 89.10 L 86.00 88.40 L 87.60 87.20 L 89.20 85.40 L 90.00 83.90 L 90.90 79.40 L 91.10 73.60 L 91.10 69.00 L 90.50 65.40 L 87.80 63.20 L 83.70 61.20 L 81.30 60.90 L 79.80 61.10 L 78.10 61.70 L 76.40 62.80 Z" fill="#ffffff" fill-rule="nonzero" group-id="23" node-id="206" stroke="#25262e" stroke-linecap="butt" stroke-width="1" target-height="41.9" target-width="28.599998" target-x="62.5" target-y="60.9"></path></g><g node-id="349"><path d="M 68.90 73.00 L 64.80 71.50 L 63.80 71.60 L 63.10 72.00 L 62.70 73.00 L 61.60 70.30 L 61.20 68.40 L 61.10 66.30 L 62.10 62.30 L 64.40 59.00 L 66.00 57.60 L 71.20 54.70 L 82.70 53.80 L 87.70 53.00 L 89.20 51.10 L 89.60 50.30 L 89.50 48.90 L 91.70 50.60 L 93.70 52.70 L 94.30 54.00 L 94.60 55.60 L 94.40 57.30 L 93.40 59.30 L 91.80 60.60 L 90.60 62.80 L 91.20 67.80 L 89.70 64.90 L 88.10 64.10 L 73.60 63.90 L 71.70 64.60 L 69.90 66.60 L 69.20 68.20 L 68.80 70.20 L 68.90 73.00 Z" fill="#0a0b1f" fill-rule="nonzero" group-id="24" node-id="211" stroke="none" target-height="24.099998" target-width="33.5" target-x="61.1" target-y="48.9"></path></g><path d="M 87.70 97.10 L 81.90 94.40 L 77.00 100.50 L 80.00 108.90 L 87.70 97.10 Z" fill="#ffffff" fill-rule="nonzero" node-id="214" stroke="#25262e" stroke-linecap="butt" stroke-width="1" target-height="14.5" target-width="10.699997" target-x="77" target-y="94.4"></path><path d="M 62.80 97.30 L 69.60 94.00 L 76.70 100.80 L 73.10 109.60 L 62.80 97.30 Z" fill="#ffffff" fill-rule="nonzero" node-id="216" stroke="#25262e" stroke-linecap="butt" stroke-width="1" target-height="15.599998" target-width="13.899998" target-x="62.8" target-y="94"></path><g node-id="350"><path d="M 85.50 82.80 L 83.80 83.30 L 82.70 83.20 L 81.70 82.80 L 80.70 81.70" fill="none" group-id="25" node-id="220" stroke="#25262e" stroke-linecap="butt" stroke-width="1" target-height="1.6000061" target-width="4.800003" target-x="80.7" target-y="81.7"></path></g><g node-id="351"><path d="M 79.60 74.50 L 79.20 75.70 L 78.20 75.60 L 77.80 74.80 L 78.20 73.60 L 78.80 73.50 L 79.60 74.50 Z" fill="#0a0b1f" fill-rule="nonzero" group-id="26" node-id="225" stroke="none" target-height="2.199997" target-width="1.7999954" target-x="77.8" target-y="73.5"></path></g><g node-id="352"><path d="M 89.10 74.10 L 88.70 75.30 L 87.70 75.20 L 87.30 74.40 L 87.70 73.20 L 88.30 73.10 L 89.10 74.10 Z" fill="#0a0b1f" fill-rule="nonzero" group-id="27" node-id="230" stroke="none" target-height="2.2000046" target-width="1.7999954" target-x="87.3" target-y="73.1"></path></g><g node-id="353"><path d="M 303.50 45.20 L 181.20 45.00 L 179.10 43.80 L 177.90 41.70 L 177.70 40.50 L 177.70 5.40 L 177.90 4.20 L 179.10 2.10 L 181.20 0.90 L 304.80 0.90 L 305.90 1.30 L 307.60 3.00 L 308.20 5.40 L 308.20 40.50 L 308.00 41.80 L 306.80 43.80 L 304.80 45.00 L 303.50 45.20 Z" fill="#ffffff" fill-rule="nonzero" group-id="28" node-id="235" stroke="none" target-height="44.3" target-width="130.50002" target-x="177.7" target-y="0.9"></path></g><g node-id="354"><path d="M 187.60 38.00 L 196.70 38.00 L 197.90 38.40 L 208.20 45.50 L 209.00 45.10 L 209.10 44.60 L 208.10 40.00 L 208.20 39.20 L 208.60 38.60 L 210.00 38.00 L 284.20 38.00 L 287.40 37.20 L 289.70 35.20 L 290.40 34.00 L 290.60 32.50 L 290.60 6.30 L 290.40 4.80 L 289.70 3.50 L 287.40 1.50 L 285.90 0.90 L 284.20 0.70 L 187.60 0.70 L 184.40 1.50 L 182.10 3.50 L 181.40 4.80 L 181.20 6.30 L 181.20 32.50 L 181.40 34.00 L 182.10 35.20 L 183.10 36.40 L 185.90 37.80 L 187.60 38.00 Z" fill="none" group-id="29" node-id="240" stroke="#7f95ff" stroke-linecap="butt" stroke-width="1.4" target-height="44.8" target-width="109.40001" target-x="181.2" target-y="0.7"></path></g><g node-id="355"><path d="M 205.20 17.70 L 208.30 17.90 L 209.60 19.30 L 209.60 23.40 L 208.20 24.70 L 204.10 24.70 L 202.80 23.30 L 202.80 19.10 L 204.20 17.90 L 205.20 17.70 Z" fill="#7f95ff" fill-opacity="0.37" fill-rule="nonzero" group-id="30" node-id="245" stroke="none" target-height="7" target-width="6.800003" target-x="202.8" target-y="17.7"></path></g><g node-id="356"><path d="M 202.00 15.40 L 206.20 15.70 L 207.50 17.00 L 207.60 21.30 L 207.40 22.20 L 206.10 23.50 L 201.80 23.60 L 200.80 23.40 L 199.50 22.10 L 199.60 16.80 L 201.00 15.60 L 202.00 15.40 Z" fill="#7f95ff" fill-rule="nonzero" group-id="31" node-id="250" stroke="none" target-height="8.200001" target-width="8.100006" target-x="199.5" target-y="15.4"></path></g><g node-id="357"><path d="M 235.60 18.40 L 238.70 18.70 L 240.00 20.00 L 239.90 24.20 L 238.60 25.50 L 234.40 25.40 L 233.10 24.00 L 233.20 19.90 L 234.60 18.60 L 235.60 18.40 Z" fill="#7f95ff" fill-opacity="0.37" fill-rule="nonzero" group-id="32" node-id="255" stroke="none" target-height="7.1000004" target-width="6.899994" target-x="233.1" target-y="18.4"></path></g><g node-id="358"><path d="M 232.70 14.80 L 237.00 15.00 L 238.30 16.40 L 238.40 20.60 L 238.20 21.60 L 236.90 22.90 L 232.60 23.00 L 231.60 22.80 L 230.30 21.50 L 230.40 16.20 L 231.70 14.90 L 232.70 14.80 Z" fill="#7f95ff" fill-rule="nonzero" group-id="33" node-id="260" stroke="none" target-height="8.2" target-width="8.099991" target-x="230.3" target-y="14.8"></path></g><g node-id="359"><path d="M 267.20 17.70 L 270.30 17.90 L 271.60 19.30 L 271.60 23.40 L 270.20 24.70 L 266.10 24.60 L 264.80 23.30 L 264.80 19.10 L 266.20 17.80 L 267.20 17.70 Z" fill="#7f95ff" fill-opacity="0.37" fill-rule="nonzero" group-id="34" node-id="265" stroke="none" target-height="7" target-width="6.8000183" target-x="264.8" target-y="17.7"></path></g><g node-id="360"><path d="M 264.10 14.80 L 268.40 15.10 L 269.70 16.40 L 269.80 20.70 L 269.60 21.60 L 268.20 22.90 L 264.00 23.10 L 263.00 22.90 L 261.70 21.50 L 261.80 16.30 L 263.10 15.00 L 264.10 14.80 Z" fill="#7f95ff" fill-rule="nonzero" group-id="35" node-id="270" stroke="none" target-height="8.3" target-width="8.099976" target-x="261.7" target-y="14.8"></path></g><path d="M 72.20 0.90 L 167.90 0.90 L 169.40 1.20 L 170.70 2.00 L 171.50 3.30 L 171.80 4.80 L 171.80 33.50 L 171.50 35.00 L 170.70 36.30 L 169.40 37.10 L 167.90 37.40 L 72.20 37.40 L 70.70 37.10 L 69.40 36.30 L 68.60 35.00 L 68.30 33.50 L 68.30 4.80 L 68.60 3.30 L 69.40 2.00 L 70.70 1.20 L 72.20 0.90 Z" fill="#ffffff" fill-rule="nonzero" node-id="273" stroke="none" target-height="36.5" target-width="103.5" target-x="68.3" target-y="0.9"></path><g node-id="361"><path d="M 162.20 40.50 L 118.60 40.50 L 117.30 40.90 L 106.80 49.30 L 106.30 49.10 L 105.90 48.20 L 106.90 42.00 L 105.80 40.70 L 105.00 40.50 L 71.90 40.50 L 70.10 40.20 L 68.60 39.60 L 67.20 38.60 L 66.20 37.20 L 65.60 35.70 L 65.30 33.90 L 65.30 10.60 L 65.60 8.80 L 66.20 7.30 L 67.20 5.90 L 68.60 4.90 L 70.10 4.30 L 71.90 4.00 L 162.20 4.00 L 164.00 4.30 L 165.50 4.90 L 166.90 5.90 L 167.90 7.30 L 168.50 8.80 L 168.80 10.60 L 168.80 33.90 L 168.50 35.70 L 167.90 37.20 L 166.90 38.60 L 165.50 39.60 L 164.00 40.20 L 162.20 40.50 Z" fill="none" group-id="36" node-id="277" stroke="#ffb431" stroke-linecap="butt" stroke-width="1.4" target-height="45.3" target-width="103.5" target-x="65.3" target-y="4"></path></g><path d="M 97.60 23.30 L 97.40 24.60 L 96.20 26.80 L 94.00 28.00 L 92.70 28.20 L 90.20 27.50 L 88.50 25.80 L 88.00 24.60 L 87.80 23.30 L 88.50 20.80 L 90.20 19.10 L 92.70 18.40 L 94.00 18.60 L 96.20 19.80 L 97.40 22.00 L 97.60 23.30 Z" fill="#ffce84" fill-rule="nonzero" node-id="280" stroke="none" target-height="9.800001" target-width="9.799995" target-x="87.8" target-y="18.4"></path><path d="M 96.00 21.20 L 95.80 22.70 L 94.40 25.00 L 92.10 26.40 L 90.60 26.60 L 87.90 25.90 L 85.90 23.90 L 85.40 22.70 L 85.20 21.20 L 85.90 18.50 L 87.90 16.50 L 90.60 15.80 L 92.10 16.00 L 94.40 17.40 L 95.80 19.70 L 96.00 21.20 Z" fill="none" node-id="282" stroke="#4e4f57" stroke-linecap="butt" stroke-width="1.4" target-height="10.8" target-width="10.800003" target-x="85.2" target-y="15.8"></path><path d="M 123.30 23.30 L 123.10 24.60 L 121.90 26.80 L 119.70 28.00 L 118.40 28.20 L 115.90 27.50 L 114.20 25.80 L 113.70 24.60 L 113.50 23.30 L 114.20 20.80 L 115.90 19.10 L 118.40 18.40 L 119.70 18.60 L 121.90 19.80 L 123.10 22.00 L 123.30 23.30 Z" fill="#ffce84" fill-rule="nonzero" node-id="284" stroke="none" target-height="9.800001" target-width="9.800003" target-x="113.5" target-y="18.4"></path><path d="M 121.80 21.20 L 121.60 22.70 L 120.20 25.00 L 117.90 26.40 L 116.40 26.60 L 113.70 25.90 L 111.70 23.90 L 111.20 22.70 L 111.00 21.20 L 111.70 18.50 L 113.70 16.50 L 116.40 15.80 L 117.90 16.00 L 120.20 17.40 L 121.60 19.70 L 121.80 21.20 Z" fill="none" node-id="286" stroke="#4e4f57" stroke-linecap="butt" stroke-width="1.4" target-height="10.8" target-width="10.800003" target-x="111" target-y="15.8"></path><path d="M 149.10 23.30 L 148.90 24.60 L 147.70 26.80 L 145.50 28.00 L 144.20 28.20 L 142.90 28.00 L 140.70 26.80 L 139.50 24.60 L 139.30 23.30 L 139.50 22.00 L 140.70 19.80 L 142.90 18.60 L 144.20 18.40 L 145.50 18.60 L 147.70 19.80 L 148.90 22.00 L 149.10 23.30 Z" fill="#ffce84" fill-rule="nonzero" node-id="288" stroke="none" target-height="9.800001" target-width="9.800003" target-x="139.3" target-y="18.4"></path><path d="M 147.50 21.20 L 147.30 22.70 L 145.90 25.00 L 143.60 26.40 L 142.10 26.60 L 139.40 25.90 L 137.40 23.90 L 136.90 22.70 L 136.70 21.20 L 137.40 18.50 L 139.40 16.50 L 142.10 15.80 L 143.60 16.00 L 145.90 17.40 L 147.30 19.70 L 147.50 21.20 Z" fill="none" node-id="290" stroke="#4e4f57" stroke-linecap="butt" stroke-width="1.4" target-height="10.8" target-width="10.800003" target-x="136.7" target-y="15.8"></path><g node-id="362"><path d="M 283.00 260.40 L 4.10 260.40" fill="none" group-id="37" node-id="294" stroke="#28282d" stroke-linecap="butt" stroke-width="1.4" target-height="0" target-width="278.9" target-x="4.1" target-y="260.4"></path></g><g node-id="363"><path d="M 129.10 178.70 L 126.20 189.10 L 125.30 193.90 L 124.60 199.30 L 124.40 204.80 L 124.70 210.40 L 125.40 214.00 L 126.40 217.30 L 127.90 220.40 L 131.00 224.40 L 133.00 226.10 L 135.50 227.60 L 138.00 228.60 L 141.00 229.40 L 144.60 229.90 L 148.80 230.00 L 149.10 228.20 L 148.80 222.50 L 148.10 218.50 L 146.40 212.70 L 144.10 206.40 L 137.50 192.60 L 129.10 178.70 Z" fill="#7f95ff" fill-rule="nonzero" group-id="38" node-id="299" stroke="none" target-height="51.300003" target-width="24.700005" target-x="124.4" target-y="178.7"></path></g><g node-id="364"><path d="M 136.40 238.10 L 133.50 238.10 L 130.60 239.00 L 128.60 240.90 L 127.90 242.10 L 127.30 246.40 L 127.50 248.80 L 129.60 256.30 L 133.70 254.00 L 135.20 252.60 L 137.30 249.20 L 138.00 245.40 L 137.90 243.40 L 136.40 238.10 Z" fill="#7f95ff" fill-rule="nonzero" group-id="39" node-id="304" stroke="none" target-height="18.199982" target-width="10.699997" target-x="127.3" target-y="238.1"></path></g><g node-id="365"><path d="M 160.60 244.10 L 164.70 244.10 L 167.70 243.70 L 170.80 242.80 L 174.50 241.30 L 179.10 238.00 L 181.50 235.70 L 183.50 233.10 L 185.50 229.80 L 187.40 225.80 L 188.80 221.60 L 189.90 216.40 L 190.70 210.20 L 186.00 210.70 L 182.60 211.70 L 178.00 213.90 L 175.40 215.70 L 173.00 217.70 L 170.70 220.40 L 168.50 223.80 L 166.70 227.40 L 165.20 231.90 L 163.90 237.40 Z" fill="#ff7447" fill-rule="nonzero" group-id="40" node-id="309" stroke="none" target-height="33.90001" target-width="30.09999" target-x="160.6" target-y="210.2"></path></g><g node-id="366"><path d="M 151.10 260.50 L 150.30 238.20 L 148.30 220.10 L 145.90 207.10 L 144.30 200.80 L 142.30 194.80 L 140.00 189.50 L 138.20 186.20 L 134.30 181.00 L 130.50 190.50 L 129.20 194.90 L 128.00 200.00 L 127.20 205.10 L 127.00 210.30 L 127.30 213.70 L 127.90 216.90 L 129.00 219.90 L 131.60 223.80 L 133.40 225.50 L 137.90 228.20 L 140.70 229.20 L 149.60 230.40 L 150.50 235.50 L 151.00 244.60 L 151.10 260.50 Z" fill="none" group-id="41" node-id="314" stroke="#28282d" stroke-linecap="butt" stroke-width="1.4" target-height="79.5" target-width="24.100006" target-x="127" target-y="181"></path></g><g node-id="367"><path d="M 148.20 260.30 L 145.80 250.70 L 143.50 244.70 L 141.10 240.60 L 138.80 238.70 L 137.90 238.70 L 137.40 239.50 L 138.80 244.10 L 138.70 245.90 L 137.70 248.40 L 136.50 250.20 L 134.00 252.80 L 129.60 256.30 L 128.90 254.20 L 127.80 249.40 L 127.40 246.60 L 127.40 243.90 L 128.40 240.70 L 129.30 239.60 L 130.50 238.90 L 132.20 238.50 L 136.70 239.00 L 138.00 238.20 L 138.90 238.20 L 140.00 238.80 L 141.40 240.40 L 142.80 242.70 L 144.60 247.10 L 146.20 252.30 L 148.20 260.30 Z" fill="none" group-id="42" node-id="319" stroke="#28282d" stroke-linecap="butt" stroke-width="1.4" target-height="22.09999" target-width="20.799995" target-x="127.4" target-y="238.2"></path></g><path d="M 151.30 260.60 L 166.90 238.40 L 168.40 235.60 L 169.50 232.70 L 169.70 228.10 L 170.80 224.00 L 173.10 220.60 L 174.70 219.10 L 179.80 216.20 L 182.90 215.20 L 186.90 214.30 L 192.10 213.60 L 192.30 218.00 L 191.30 224.70 L 190.00 228.60 L 187.10 233.70 L 185.00 236.30 L 182.60 238.60 L 179.50 240.80 L 175.70 242.90 L 171.70 244.50 L 166.80 245.90 L 160.80 247.00 L 151.30 260.60 Z" fill="none" group-id="43" node-id="324" stroke="#28282d" stroke-linecap="butt" stroke-width="1.4" target-height="47" target-width="41" target-x="151.3" target-y="213.6"></path></svg>